/* XPM */
static char * hide_active_xpm[] = {
"22 22 3 1",
" 	c None",
".	c #3F3F3F",
"+	c #DBDBDB",
"                      ",
"                      ",
"  ..................  ",
"  ..................  ",
"  ..................  ",
"  ..................  ",
"  ..................  ",
"  ..................  ",
"  ..................  ",
"  ..................  ",
"  ..................  ",
"  ..................  ",
"  ..................  ",
"  .....++++++++.....  ",
"  .....++++++++.....  ",
"  ..................  ",
"  ..................  ",
"  ..................  ",
"  ..................  ",
"  ..................  ",
"                      ",
"                      "};
