/* XPM */
static char * close_inactive_xpm[] = {
"22 22 36 1",
" 	c #3F3F3F",
".	c #515151",
"+	c #686868",
"@	c #787878",
"#	c #818181",
"$	c #808080",
"%	c #6B6B6B",
"&	c #4D4D4D",
"*	c #7A7A7A",
"=	c #848484",
"-	c #626262",
";	c #5D5D5D",
">	c #5F5F5F",
",	c #3D3D3D",
"'	c #4A4A4A",
")	c #535353",
"!	c #AFAFAF",
"~	c #B0B0B0",
"{	c #888888",
"]	c #898989",
"^	c #AEAEAE",
"/	c #505050",
"(	c #636363",
"_	c #BBBBBB",
":	c #B1B1B1",
"<	c #B2B2B2",
"[	c #656565",
"}	c #4C4C4C",
"|	c #4E4E4E",
"1	c #777777",
"2	c #5B5B5B",
"3	c #616161",
"4	c #606060",
"5	c #484848",
"6	c #3E3E3E",
"7	c #4B4B4B",
"                      ",
"       .+@#$@%.       ",
"     &*========@.     ",
"    -============;    ",
"   -==============>,  ",
"  '================&  ",
"  *================@  ",
" )=====!~{==]~^=====/ ",
" (=====~_:{{:_~=====% ",
" @====={:_::_:{=====@ ",
" #======{:__<]======$ ",
" #======{:__<]======# ",
" @====={:_::_:{=====@ ",
" +=====~_:{{:_~=====[ ",
" }=====^~]=={~^=====| ",
"  1================*  ",
"  |================'  ",
"   2==============3   ",
"    2============4    ",
"     '*========@5     ",
"     6 7[@#$@[&       ",
"                      "};
