/* XPM */
static char * close_active_xpm[] = {
"22 22 45 1",
" 	c #3F3F3F",
".	c #595C45",
"+	c #797D53",
"@	c #949B54",
"#	c #A7B151",
"$	c #A4AE51",
"%	c #7D8254",
"&	c #555743",
"*	c #99A153",
"=	c #ABB552",
"-	c #5A5C45",
";	c #707450",
">	c #6A6D4D",
",	c #6C704E",
"'	c #3D3D3D",
")	c #525341",
"!	c #5C5F46",
"~	c #D7DCAD",
"{	c #DDE1B8",
"]	c #AEB858",
"^	c #AFB859",
"/	c #D5DAA7",
"(	c #595B44",
"_	c #737650",
":	c #E1E5C1",
"<	c #DDE1B9",
"[	c #DCE1B9",
"}	c #D9DFB2",
"|	c #DEE1BA",
"1	c #AFB959",
"2	c #757951",
"3	c #545641",
"4	c #D1D7A1",
"5	c #575943",
"6	c #939954",
"7	c #525440",
"8	c #686B4B",
"9	c #6F734F",
"0	c #6E724E",
"a	c #99A053",
"b	c #4F513E",
"c	c #3E3E3E",
"d	c #535540",
"e	c #A5AF51",
"f	c #565842",
"                      ",
"       .+@#$@%.       ",
"     &*========@-     ",
"    ;============>    ",
"   ;==============,'  ",
"  )================&  ",
"  *================@  ",
" !=====~{]==^{/=====( ",
" _====={:<]][:}=====% ",
" @=====][:<<:<]=====@ ",
" #======]<::|1======$ ",
" #======]<::|1======# ",
" @=====][:<<:[]=====@ ",
" +====={:[]]<:{=====2 ",
" 3=====/{^==]{4=====5 ",
"  6================*  ",
"  5================7  ",
"   8==============9   ",
"    8============0    ",
"     7a========@b     ",
"     c d2@#e@2f       ",
"                      "};
