/* XPM */
static char * maximize_active_xpm[] = {
"22 22 4 1",
" 	c None",
".	c #3F3F3F",
"+	c #848484",
"@	c #C6C6C6",
"                      ",
"                      ",
"  ..................  ",
"  ..................  ",
"  ..................  ",
"  ..................  ",
"  ..................  ",
"  .....+@@@@@@+.....  ",
"  .....@@@@@@@@.....  ",
"  .....@@....@@.....  ",
"  .....@@....@@.....  ",
"  .....@@....@@.....  ",
"  .....@@....@@.....  ",
"  .....@@@@@@@@.....  ",
"  .....+@@@@@@+.....  ",
"  ..................  ",
"  ..................  ",
"  ..................  ",
"  ..................  ",
"  ..................  ",
"                      ",
"                      "};
